<?xml version="1.0" standalone="no"?>
<!DOCTYPE svg PUBLIC "-//W3C//DTD SVG 20010904//EN"
 "http://www.w3.org/TR/2001/REC-SVG-20010904/DTD/svg10.dtd">
<svg version="1.0" xmlns="http://www.w3.org/2000/svg"
 width="96.000000pt" height="96.000000pt" viewBox="0 0 96.000000 96.000000"
 preserveAspectRatio="xMidYMid meet">

<g transform="translate(0.000000,96.000000) scale(0.100000,-0.100000)"
fill="#000000" stroke="none">
<path d="M385 806 c-90 -30 -152 -65 -188 -105 -49 -55 -107 -174 -107 -221 0
-45 41 -129 86 -177 34 -35 34 -35 61 -18 26 17 27 17 46 -9 25 -35 76 -61 90
-47 7 7 3 13 -15 20 -38 14 -89 80 -82 106 3 12 0 49 -6 83 -7 41 -7 74 -1
104 6 26 6 47 1 52 -19 19 -31 -49 -28 -154 2 -80 0 -111 -11 -124 -13 -16
-16 -15 -37 5 -36 33 -74 118 -74 162 0 48 55 157 106 210 24 24 62 46 117 68
69 26 92 30 147 27 38 -2 83 -12 110 -25 25 -11 62 -26 82 -33 45 -14 86 -59
122 -132 41 -83 43 -116 12 -185 -27 -57 -61 -103 -78 -103 -5 0 -15 15 -22
33 -11 25 -11 46 -3 94 12 69 1 154 -22 161 -10 3 -12 -5 -6 -38 4 -23 4 -87
0 -143 l-7 -102 -44 -42 c-49 -47 -52 -53 -27 -53 9 0 34 19 55 41 29 31 42
39 51 30 19 -19 44 -12 72 20 44 53 78 130 79 179 1 90 -102 251 -171 265 -16
4 -53 18 -83 32 -66 31 -165 40 -225 19z"/>
<path d="M351 586 c-16 -19 -6 -36 20 -36 15 0 20 6 17 22 -4 27 -21 33 -37
14z"/>
<path d="M594 585 c-4 -9 -2 -21 4 -27 15 -15 44 -1 40 19 -4 23 -36 29 -44 8z"/>
<path d="M423 468 c-6 -7 -13 -23 -17 -34 -9 -29 38 -49 95 -41 54 7 66 19 53
54 -9 25 -14 28 -65 31 -37 2 -59 -2 -66 -10z"/>
<path d="M330 371 c0 -19 10 -40 29 -58 19 -20 30 -43 35 -77 10 -62 42 -96
90 -96 19 0 41 7 50 15 15 16 36 76 36 107 0 9 16 32 35 51 37 37 48 87 20 87
-9 0 -15 -9 -15 -23 0 -13 -10 -33 -23 -45 -38 -36 -79 -26 -88 22 -6 30 -29
32 -29 2 0 -19 -8 -30 -26 -38 -35 -16 -75 6 -88 50 -11 40 -26 42 -26 3z"/>
</g>
</svg>
